PathFileType	4	(X/Y/Z)	C:/Users/beibeiliu/ov580/test_trc/User2\sequence.27_training_dense_left.trc
DataRate	CameraRate	NumFrames	NumMarkers	Units	OrigDataRate	OrigDataStartFrame	OrigNumFrames
120	120	7	19	mm	120	209	278
Frame#	Time	ThumbCMC			ThumbMCP			ThumbIP			ThumbTip			IndexMCP			IndexPIP			IndexTip			MiddleMCP			MiddlePIP			MiddleTip			RingMCP			RingPIP			RingTip			PinkyMCP			PinkyPIP			PinkyTip			BackHand1			BackHand2			BackHand3	
		X0	Y0	Z0	X1	Y1	Z1	X2	Y2	Z2	X3	Y3	Z3	X4	Y4	Z4	X5	Y5	Z5	X6	Y6	Z6	X7	Y7	Z7	X8	Y8	Z8	X9	Y9	Z9	X10	Y10	Z10	X11	Y11	Z11	X12	Y12	Z12	X13	Y13	Z13	X14	Y14	Z14	X15	Y15	Z15	X16	Y16	Z16	X17	Y17	Z17	X18	Y18	Z18	
208	1.73333	-199.419	-7.3088	78.0839	-171.277	3.25613	52.9859	-147.131	11.9845	26.0469	-126.769	8.1405	5.93482	-201.282	-27.2418	-3.05563	-186.06	-10.3687	-25.6783	-161.212	-1.37695	-36.421	-189.685	-50.5846	-4.84277	-166.515	-36.3426	-30.2495	-133.413	-18.9937	-40.0646	-176.394	-72.7424	2.94579	-159.729	-60.6162	-25.0516	-136.261	-42.5948	-37.9678	-167.592	-85.2793	23.2636	-156.154	-92.1106	-5.57809	-147.044	-91.6857	-25.4515	-195.258	-73.8036	62.5011	-200.5	-78.2141	93.5986	-218.278	-49.8819	72.577	
209	1.74167	-200.865	-10.4483	76.3744	-173.916	2.99909	54.0409	-149.564	7.6907	22.3002	-131.67	5.27893	6.00259	-203.525	-30.9814	-0.604478	-184.426	-17.0649	-24.0535	-158.147	-4.70803	-35.7881	-186.023	-54.4894	-4.72281	-161.475	-37.5716	-29.3808	-135.066	-13.5333	-34.1382	-174.289	-70.9132	3.22976	-156.023	-60.6089	-21.8091	-131.618	-35.794	-31.0068	-160.829	-88.2897	25.0188	-149.013	-94.6565	-1.94461	-138.195	-90.628	-28.329	-193.284	-78.0775	61.8262	-200.543	-77.6266	89.8415	-219.233	-54.223	73.6841	
210	1.75	-202.323	-13.1935	72.6089	-174.122	0.143642	51.6134	-151.656	3.05856	23.3769	-132.71	3.17487	2.57827	-203.727	-29.7685	-4.62782	-184.345	-15.2782	-25.9774	-159.02	-5.8551	-33.9714	-184.441	-53.1412	-6.23728	-163.039	-36.9836	-25.4953	-129.57	-11.9632	-26.6648	-167.804	-71.9312	2.80413	-152.019	-57.661	-17.9709	-129.718	-31.51	-22.8233	-158.96	-90.0152	26.7995	-147.013	-93.9553	-2.13209	-137.859	-89.4864	-27.1216	-194.809	-78.915	63.6344	-197.269	-79.868	96.1833	-219.204	-54.2752	69.5844	
211	1.75833	-201.227	-15.1857	74.7017	-174.056	-3.61828	48.175	-151.149	2.64972	20.3817	-133.911	-0.63998	5.34341	-202.933	-30.7711	-5.36861	-183.554	-19.8763	-24.0849	-154.874	-5.46392	-34.2857	-183.133	-55.3386	-4.29985	-160.66	-37.3456	-24.0996	-127.916	-11.9798	-21.548	-164.347	-71.1187	0.498944	-144.831	-54.2407	-17.3777	-124.853	-25.4715	-15.3682	-158.945	-89.8555	22.8221	-147.423	-91.4907	-0.451824	-138.013	-88.6603	-25.3217	-191.366	-82.2796	60.8039	-196.469	-81.7063	92.2466	-222.037	-54.2618	69.9845	
212	1.76667	-202.729	-11.2209	72.7058	-174.754	2.36754	50.0911	-150.849	1.13351	20.5376	-132.45	-3.76494	5.01671	-201.129	-32.2354	-4.40058	-183.686	-20.006	-24.6013	-156.621	-4.898	-33.6637	-186.1	-52.4252	-3.03298	-156.094	-39.0164	-23.4142	-129.882	-11.6415	-20.8218	-165.931	-69.4663	2.96071	-143.331	-50.6121	-15.0515	-125.813	-26.5775	-11.7674	-159.496	-86.3293	26.9899	-147.622	-91.0678	-1.12546	-134.109	-89.0901	-23.3258	-190.173	-81.4801	62.8357	-197.733	-82.2975	95.2809	-216.079	-56.3417	70.0291	
213	1.775	-201.407	-15.4926	76.3146	-173.243	2.33036	50.282	-151.011	0.147431	22.5805	-130.981	-3.74305	1.06066	-199.138	-33.8356	-5.86726	-183.102	-19.9824	-25.0447	-156.747	-9.85167	-32.6804	-182.088	-53.7217	-7.38862	-159.458	-39.5297	-24.9252	-129.061	-16.8102	-21.8266	-164.784	-70.1171	3.57099	-143.456	-51.8512	-14.8554	-126.909	-25.3386	-11.5419	-159.405	-86.5348	24.14	-148.941	-89.3633	-3.76163	-136.11	-89.1117	-27.8534	-189.761	-82.0205	61.8138	-196.224	-81.4763	93.988	-218.884	-53.6145	72.4023	
214	1.78333	-202.139	-13.5524	75.4297	-173.282	-0.356512	48.7286	-150.177	1.57442	22.5868	-131.704	-1.70708	6.86449	-201.326	-32.6738	-5.22871	-182.278	-21.9476	-24.1351	-156.421	-5.08993	-34.3366	-186.67	-54.2736	-4.30059	-161.629	-34.8624	-28.3988	-133.326	-12.7397	-26.6894	-165.137	-70.2291	4.11888	-144.868	-55.2663	-14.5523	-124.695	-25.0353	-9.97752	-159.89	-86.9277	25.0315	-147.917	-90.3649	-4.46854	-135.757	-88.427	-28.9137	-192.941	-80.4574	59.6079	-198.439	-79.0669	93.1328	-219.343	-56.3965	71.2203	
